<svg xmlns="http://www.w3.org/2000/svg" xmlns:xlink="http://www.w3.org/1999/xlink" id="processonSvg1000" viewBox="223.0 61.0 894.0 693.0" width="894.0" height="693.0"><defs id="ProcessOnDefs1001"><marker id="ProcessOnMarker1107" markerUnits="userSpaceOnUse" orient="auto" markerWidth="16.23606797749979" markerHeight="10.550836550532098" viewBox="-1.0 -1.3763819204711736 16.23606797749979 10.550836550532098" refX="-1.0" refY="3.8990363547948754"><path id="ProcessOnPath1108" d="M12.0 3.8990363547948754L0.0 7.798072709589751V0.0Z" stroke="#323232" stroke-width="2.0" fill="#323232" transform="matrix(1.0,0.0,0.0,1.0,0.0,0.0)"/></marker><marker id="ProcessOnMarker1111" markerUnits="userSpaceOnUse" orient="auto" markerWidth="16.23606797749979" markerHeight="10.550836550532098" viewBox="-1.0 -1.3763819204711736 16.23606797749979 10.550836550532098" refX="-1.0" refY="3.8990363547948754"><path id="ProcessOnPath1112" d="M12.0 3.8990363547948754L0.0 7.798072709589751V0.0Z" stroke="#323232" stroke-width="2.0" fill="#323232" transform="matrix(1.0,0.0,0.0,1.0,0.0,0.0)"/></marker><marker id="ProcessOnMarker1115" markerUnits="userSpaceOnUse" orient="auto" markerWidth="16.23606797749979" markerHeight="10.550836550532098" viewBox="-1.0 -1.3763819204711736 16.23606797749979 10.550836550532098" refX="-1.0" refY="3.8990363547948754"><path id="ProcessOnPath1116" d="M12.0 3.8990363547948754L0.0 7.798072709589751V0.0Z" stroke="#323232" stroke-width="2.0" fill="#323232" transform="matrix(1.0,0.0,0.0,1.0,0.0,0.0)"/></marker><marker id="ProcessOnMarker1119" markerUnits="userSpaceOnUse" orient="auto" markerWidth="16.23606797749979" markerHeight="10.550836550532098" viewBox="-1.0 -1.3763819204711736 16.23606797749979 10.550836550532098" refX="-1.0" refY="3.8990363547948754"><path id="ProcessOnPath1120" d="M12.0 3.8990363547948754L0.0 7.798072709589751V0.0Z" stroke="#323232" stroke-width="2.0" fill="#323232" transform="matrix(1.0,0.0,0.0,1.0,0.0,0.0)"/></marker><marker id="ProcessOnMarker1123" markerUnits="userSpaceOnUse" orient="auto" markerWidth="16.23606797749979" markerHeight="10.550836550532098" viewBox="-1.0 -1.3763819204711736 16.23606797749979 10.550836550532098" refX="-1.0" refY="3.8990363547948754"><path id="ProcessOnPath1124" d="M12.0 3.8990363547948754L0.0 7.798072709589751V0.0Z" stroke="#323232" stroke-width="2.0" fill="#323232" transform="matrix(1.0,0.0,0.0,1.0,0.0,0.0)"/></marker><marker id="ProcessOnMarker1130" markerUnits="userSpaceOnUse" orient="auto" markerWidth="16.23606797749979" markerHeight="10.550836550532098" viewBox="-1.0 -1.3763819204711736 16.23606797749979 10.550836550532098" refX="-1.0" refY="3.8990363547948754"><path id="ProcessOnPath1131" d="M12.0 3.8990363547948754L0.0 7.798072709589751V0.0Z" stroke="#323232" stroke-width="2.0" fill="#323232" transform="matrix(1.0,0.0,0.0,1.0,0.0,0.0)"/></marker><marker id="ProcessOnMarker1134" markerUnits="userSpaceOnUse" orient="auto" markerWidth="16.23606797749979" markerHeight="10.550836550532098" viewBox="-1.0 -1.3763819204711736 16.23606797749979 10.550836550532098" refX="-1.0" refY="3.8990363547948754"><path id="ProcessOnPath1135" d="M12.0 3.8990363547948754L0.0 7.798072709589751V0.0Z" stroke="#323232" stroke-width="2.0" fill="#323232" transform="matrix(1.0,0.0,0.0,1.0,0.0,0.0)"/></marker><marker id="ProcessOnMarker1141" markerUnits="userSpaceOnUse" orient="auto" markerWidth="16.23606797749979" markerHeight="10.550836550532098" viewBox="-1.0 -1.3763819204711736 16.23606797749979 10.550836550532098" refX="-1.0" refY="3.8990363547948754"><path id="ProcessOnPath1142" d="M12.0 3.8990363547948754L0.0 7.798072709589751V0.0Z" stroke="#323232" stroke-width="2.0" fill="#323232" transform="matrix(1.0,0.0,0.0,1.0,0.0,0.0)"/></marker><marker id="ProcessOnMarker1145" markerUnits="userSpaceOnUse" orient="auto" markerWidth="16.23606797749979" markerHeight="10.550836550532098" viewBox="-1.0 -1.3763819204711736 16.23606797749979 10.550836550532098" refX="-1.0" refY="3.8990363547948754"><path id="ProcessOnPath1146" d="M12.0 3.8990363547948754L0.0 7.798072709589751V0.0Z" stroke="#323232" stroke-width="2.0" fill="#323232" transform="matrix(1.0,0.0,0.0,1.0,0.0,0.0)"/></marker><marker id="ProcessOnMarker1149" markerUnits="userSpaceOnUse" orient="auto" markerWidth="16.23606797749979" markerHeight="10.550836550532098" viewBox="-1.0 -1.3763819204711736 16.23606797749979 10.550836550532098" refX="-1.0" refY="3.8990363547948754"><path id="ProcessOnPath1150" d="M12.0 3.8990363547948754L0.0 7.798072709589751V0.0Z" stroke="#323232" stroke-width="2.0" fill="#323232" transform="matrix(1.0,0.0,0.0,1.0,0.0,0.0)"/></marker><marker id="ProcessOnMarker1153" markerUnits="userSpaceOnUse" orient="auto" markerWidth="16.23606797749979" markerHeight="10.550836550532098" viewBox="-1.0 -1.3763819204711736 16.23606797749979 10.550836550532098" refX="-1.0" refY="3.8990363547948754"><path id="ProcessOnPath1154" d="M12.0 3.8990363547948754L0.0 7.798072709589751V0.0Z" stroke="#323232" stroke-width="2.0" fill="#323232" transform="matrix(1.0,0.0,0.0,1.0,0.0,0.0)"/></marker><marker id="ProcessOnMarker1157" markerUnits="userSpaceOnUse" orient="auto" markerWidth="16.23606797749979" markerHeight="10.550836550532098" viewBox="-1.0 -1.3763819204711736 16.23606797749979 10.550836550532098" refX="-1.0" refY="3.8990363547948754"><path id="ProcessOnPath1158" d="M12.0 3.8990363547948754L0.0 7.798072709589751V0.0Z" stroke="#323232" stroke-width="2.0" fill="#323232" transform="matrix(1.0,0.0,0.0,1.0,0.0,0.0)"/></marker><marker id="ProcessOnMarker1166" markerUnits="userSpaceOnUse" orient="auto" markerWidth="16.23606797749979" markerHeight="10.550836550532098" viewBox="-1.0 -1.3763819204711736 16.23606797749979 10.550836550532098" refX="-1.0" refY="3.8990363547948754"><path id="ProcessOnPath1167" d="M12.0 3.8990363547948754L0.0 7.798072709589751V0.0Z" stroke="#323232" stroke-width="2.0" fill="#323232" transform="matrix(1.0,0.0,0.0,1.0,0.0,0.0)"/></marker><marker id="ProcessOnMarker1173" markerUnits="userSpaceOnUse" orient="auto" markerWidth="16.23606797749979" markerHeight="10.550836550532098" viewBox="-1.0 -1.3763819204711736 16.23606797749979 10.550836550532098" refX="-1.0" refY="3.8990363547948754"><path id="ProcessOnPath1174" d="M12.0 3.8990363547948754L0.0 7.798072709589751V0.0Z" stroke="#323232" stroke-width="2.0" fill="#323232" transform="matrix(1.0,0.0,0.0,1.0,0.0,0.0)"/></marker><marker id="ProcessOnMarker1177" markerUnits="userSpaceOnUse" orient="auto" markerWidth="16.23606797749979" markerHeight="10.550836550532098" viewBox="-1.0 -1.3763819204711736 16.23606797749979 10.550836550532098" refX="-1.0" refY="3.8990363547948754"><path id="ProcessOnPath1178" d="M12.0 3.8990363547948754L0.0 7.798072709589751V0.0Z" stroke="#323232" stroke-width="2.0" fill="#323232" transform="matrix(1.0,0.0,0.0,1.0,0.0,0.0)"/></marker><marker id="ProcessOnMarker1184" markerUnits="userSpaceOnUse" orient="auto" markerWidth="16.23606797749979" markerHeight="10.550836550532098" viewBox="-1.0 -1.3763819204711736 16.23606797749979 10.550836550532098" refX="-1.0" refY="3.8990363547948754"><path id="ProcessOnPath1185" d="M12.0 3.8990363547948754L0.0 7.798072709589751V0.0Z" stroke="#323232" stroke-width="2.0" fill="#323232" transform="matrix(1.0,0.0,0.0,1.0,0.0,0.0)"/></marker></defs><g id="ProcessOnG1002"><path id="ProcessOnPath1003" d="M223.0 61.0H1117.0V754.0H223.0V61.0Z" fill="none"/><g id="ProcessOnG1004"><g id="ProcessOnG1005" transform="matrix(1.0,0.0,0.0,1.0,243.0,81.0)" opacity="1.0"><path id="ProcessOnPath1006" d="M0.0 0.0L854.0 0.0L854.0 653.0L0.0 653.0Z" stroke="#323232" stroke-width="2.0" stroke-dasharray="none" opacity="1.0" fill="none"/><path id="ProcessOnPath1007" d="M0.0 0.0L854.0 0.0L854.0 40.0L0.0 40.0Z" stroke="#323232" stroke-width="2.0" stroke-dasharray="none" opacity="1.0" fill="#ffffff"/><g id="ProcessOnG1008" transform="matrix(1.0,0.0,0.0,1.0,10.0,10.0)"><text id="ProcessOnText1009" fill="#000000" font-size="16" x="416.0" y="16.4" font-family="微软雅黑" font-weight="normal" font-style="normal" text-decoration="none" family="微软雅黑" text-anchor="middle" size="16">代码审查</text></g></g><g id="ProcessOnG1010" transform="matrix(1.0,0.0,0.0,1.0,243.0,121.0)" opacity="1.0"><path id="ProcessOnPath1011" d="M0.0 0.0L229.0 0.0L229.0 613.0L0.0 613.0Z" stroke="#323232" stroke-width="2.0" stroke-dasharray="none" opacity="1.0" fill="none"/><path id="ProcessOnPath1012" d="M0.0 0.0L229.0 0.0L229.0 30.0L0.0 30.0Z" stroke="#323232" stroke-width="2.0" stroke-dasharray="none" opacity="1.0" fill="#ffffff"/><g id="ProcessOnG1013" transform="matrix(1.0,0.0,0.0,1.0,10.0,6.875)"><text id="ProcessOnText1014" fill="#000000" font-size="13" x="103.5" y="13.325" font-family="微软雅黑" font-weight="normal" font-style="normal" text-decoration="none" family="微软雅黑" text-anchor="middle" size="13">提交pull request</text></g></g><g id="ProcessOnG1015" transform="matrix(1.0,0.0,0.0,1.0,472.0,121.0)" opacity="1.0"><path id="ProcessOnPath1016" d="M0.0 0.0L222.0 0.0L222.0 613.0L0.0 613.0Z" stroke="#323232" stroke-width="2.0" stroke-dasharray="none" opacity="1.0" fill="none"/><path id="ProcessOnPath1017" d="M0.0 0.0L222.0 0.0L222.0 30.0L0.0 30.0Z" stroke="#323232" stroke-width="2.0" stroke-dasharray="none" opacity="1.0" fill="#ffffff"/><g id="ProcessOnG1018" transform="matrix(1.0,0.0,0.0,1.0,10.0,6.875)"><text id="ProcessOnText1019" fill="#000000" font-size="13" x="100.0" y="13.325" font-family="微软雅黑" font-weight="normal" font-style="normal" text-decoration="none" family="微软雅黑" text-anchor="middle" size="13">开始审查</text></g></g><g id="ProcessOnG1020" transform="matrix(1.0,0.0,0.0,1.0,694.0,121.0)" opacity="1.0"><path id="ProcessOnPath1021" d="M0.0 0.0L229.0 0.0L229.0 613.0L0.0 613.0Z" stroke="#323232" stroke-width="2.0" stroke-dasharray="none" opacity="1.0" fill="none"/><path id="ProcessOnPath1022" d="M0.0 0.0L229.0 0.0L229.0 30.0L0.0 30.0Z" stroke="#323232" stroke-width="2.0" stroke-dasharray="none" opacity="1.0" fill="#ffffff"/><g id="ProcessOnG1023" transform="matrix(1.0,0.0,0.0,1.0,10.0,6.875)"><text id="ProcessOnText1024" fill="#000000" font-size="13" x="103.5" y="13.325" font-family="微软雅黑" font-weight="normal" font-style="normal" text-decoration="none" family="微软雅黑" text-anchor="middle" size="13">结束审查</text></g></g><g id="ProcessOnG1025" transform="matrix(1.0,0.0,0.0,1.0,314.0,201.1423611111111)" opacity="1.0"><path id="ProcessOnPath1026" d="M12.905092592592593 0.0L69.0949074074074 0.0C86.3016975308642 0.0 86.3016975308642 38.71527777777778 69.0949074074074 38.71527777777778L12.905092592592593 38.71527777777778C-4.301697530864198 38.71527777777778 -4.301697530864198 0.0 12.905092592592593 0.0Z" stroke="#4d9900" stroke-width="2.0" stroke-dasharray="none" opacity="1.0" fill="#4d9900"/><g id="ProcessOnG1027" transform="matrix(1.0,0.0,0.0,1.0,10.0,11.23263888888889)"><text id="ProcessOnText1028" fill="#000000" font-size="13" x="30.0" y="13.325" font-family="微软雅黑" font-weight="normal" font-style="normal" text-decoration="none" family="微软雅黑" text-anchor="middle" size="13">提交pr</text></g></g><g id="ProcessOnG1029" transform="matrix(1.0,0.0,0.0,1.0,314.0,361.44097222222223)" opacity="1.0"><path id="ProcessOnPath1030" d="M0.0 0.0L82.0 0.0L82.0 45.11805555555554L0.0 45.11805555555554Z" stroke="#99ccff" stroke-width="2.0" stroke-dasharray="none" opacity="1.0" fill="#99ccff"/><g id="ProcessOnG1031" transform="matrix(1.0,0.0,0.0,1.0,10.0,-1.8159722222222285)"><text id="ProcessOnText1032" fill="#000000" font-size="13" x="30.0" y="13.325" font-family="微软雅黑" font-weight="normal" font-style="normal" text-decoration="none" family="微软雅黑" text-anchor="middle" size="13">按照pr模</text><text id="ProcessOnText1033" fill="#000000" font-size="13" x="30.0" y="29.575" font-family="微软雅黑" font-weight="normal" font-style="normal" text-decoration="none" family="微软雅黑" text-anchor="middle" size="13">板填写内</text><text id="ProcessOnText1034" fill="#000000" font-size="13" x="30.0" y="45.825" font-family="微软雅黑" font-weight="normal" font-style="normal" text-decoration="none" family="微软雅黑" text-anchor="middle" size="13">容</text></g></g><g id="ProcessOnG1035" transform="matrix(1.0,0.0,0.0,1.0,559.625,400.5)" opacity="1.0"><path id="ProcessOnPath1036" d="M0.0 46.25L54.625 0.0L109.25 46.25L54.625 92.5L0.0 46.25Z" stroke="#ff8000" stroke-width="2.0" stroke-dasharray="none" opacity="1.0" fill="#ff8000"/><g id="ProcessOnG1037" transform="matrix(1.0,0.0,0.0,1.0,10.0,30.0)"><text id="ProcessOnText1038" fill="#000000" font-size="13" x="43.625" y="13.325" font-family="微软雅黑" font-weight="normal" font-style="normal" text-decoration="none" family="微软雅黑" text-anchor="middle" size="13">检查pr描述是</text><text id="ProcessOnText1039" fill="#000000" font-size="13" x="43.625" y="29.575" font-family="微软雅黑" font-weight="normal" font-style="normal" text-decoration="none" family="微软雅黑" text-anchor="middle" size="13">否完善</text></g></g><g id="ProcessOnG1040" transform="matrix(1.0,0.0,0.0,1.0,550.5625,180.99999999999994)" opacity="1.0"><path id="ProcessOnPath1041" d="M0.0 0.0L127.375 0.0L127.375 79.00000000000006L0.0 79.00000000000006Z" stroke="#99ccff" stroke-width="2.0" stroke-dasharray="none" opacity="1.0" fill="#99ccff"/><g id="ProcessOnG1042" transform="matrix(1.0,0.0,0.0,1.0,10.0,7.000000000000028)"><text id="ProcessOnText1043" fill="#000000" font-size="13" x="52.6875" y="13.325" font-family="微软雅黑" font-weight="normal" font-style="normal" text-decoration="none" family="微软雅黑" text-anchor="middle" size="13">进行code review</text><text id="ProcessOnText1044" fill="#000000" font-size="13" x="52.6875" y="29.575" font-family="微软雅黑" font-weight="normal" font-style="normal" text-decoration="none" family="微软雅黑" text-anchor="middle" size="13">，评论，以及讨论</text><text id="ProcessOnText1045" fill="#000000" font-size="13" x="52.6875" y="45.825" font-family="微软雅黑" font-weight="normal" font-style="normal" text-decoration="none" family="微软雅黑" text-anchor="middle" size="13">（借助邮箱通知，</text><text id="ProcessOnText1046" fill="#000000" font-size="13" x="52.6875" y="62.075" font-family="微软雅黑" font-weight="normal" font-style="normal" text-decoration="none" family="微软雅黑" text-anchor="middle" size="13">提高效率）</text></g></g><g id="ProcessOnG1047" transform="matrix(1.0,0.0,0.0,1.0,573.25,641.125)" opacity="1.0"><path id="ProcessOnPath1048" d="M0.0 0.0L82.0 0.0L82.0 48.0L0.0 48.0Z" stroke="#99ccff" stroke-width="2.0" stroke-dasharray="none" opacity="1.0" fill="#99ccff"/><g id="ProcessOnG1049" transform="matrix(1.0,0.0,0.0,1.0,10.0,-0.375)"><text id="ProcessOnText1050" fill="#000000" font-size="13" x="30.0" y="13.325" font-family="微软雅黑" font-weight="normal" font-style="normal" text-decoration="none" family="微软雅黑" text-anchor="middle" size="13">回复代码</text><text id="ProcessOnText1051" fill="#000000" font-size="13" x="30.0" y="29.575" font-family="微软雅黑" font-weight="normal" font-style="normal" text-decoration="none" family="微软雅黑" text-anchor="middle" size="13">提交者，</text><text id="ProcessOnText1052" fill="#000000" font-size="13" x="30.0" y="45.825" font-family="微软雅黑" font-weight="normal" font-style="normal" text-decoration="none" family="微软雅黑" text-anchor="middle" size="13">已收到</text></g></g><g id="ProcessOnG1053" transform="matrix(1.0,0.0,0.0,1.0,747.25,183.5)" opacity="1.0"><path id="ProcessOnPath1054" d="M0.0 0.0L129.0 0.0L129.0 74.0L0.0 74.0Z" stroke="#99ccff" stroke-width="2.0" stroke-dasharray="none" opacity="1.0" fill="#99ccff"/><g id="ProcessOnG1055" transform="matrix(1.0,0.0,0.0,1.0,10.0,4.5)"><text id="ProcessOnText1056" fill="#000000" font-size="13" x="53.5" y="13.325" font-family="微软雅黑" font-weight="normal" font-style="normal" text-decoration="none" family="微软雅黑" text-anchor="middle" size="13">审查者把需要增加</text><text id="ProcessOnText1057" fill="#000000" font-size="13" x="53.5" y="29.575" font-family="微软雅黑" font-weight="normal" font-style="normal" text-decoration="none" family="微软雅黑" text-anchor="middle" size="13">到审查清单的评论</text><text id="ProcessOnText1058" fill="#000000" font-size="13" x="53.5" y="45.825" font-family="微软雅黑" font-weight="normal" font-style="normal" text-decoration="none" family="微软雅黑" text-anchor="middle" size="13">以 review-item--</text><text id="ProcessOnText1059" fill="#000000" font-size="13" x="53.5" y="62.075" font-family="微软雅黑" font-weight="normal" font-style="normal" text-decoration="none" family="微软雅黑" text-anchor="middle" size="13">开头进行整理</text></g></g><g id="ProcessOnG1060" transform="matrix(1.0,0.0,0.0,1.0,923.0,121.0)" opacity="1.0"><path id="ProcessOnPath1061" d="M0.0 0.0L174.0 0.0L174.0 613.0L0.0 613.0Z" stroke="#323232" stroke-width="2.0" stroke-dasharray="none" opacity="1.0" fill="none"/><path id="ProcessOnPath1062" d="M0.0 0.0L174.0 0.0L174.0 30.0L0.0 30.0Z" stroke="#323232" stroke-width="2.0" stroke-dasharray="none" opacity="1.0" fill="#ffffff"/><g id="ProcessOnG1063" transform="matrix(1.0,0.0,0.0,1.0,10.0,6.875)"><text id="ProcessOnText1064" fill="#000000" font-size="13" x="76.0" y="13.325" font-family="微软雅黑" font-weight="normal" font-style="normal" text-decoration="none" family="微软雅黑" text-anchor="middle" size="13">事后</text></g></g><g id="ProcessOnG1065" transform="matrix(1.0,0.0,0.0,1.0,974.0,200.0)" opacity="1.0"><path id="ProcessOnPath1066" d="M13.666666666666666 0.0L58.333333333333336 0.0C76.55555555555556 0.0 76.55555555555556 41.0 58.333333333333336 41.0L13.666666666666666 41.0C-4.555555555555555 41.0 -4.555555555555555 0.0 13.666666666666666 0.0Z" stroke="#4d9900" stroke-width="2.0" stroke-dasharray="none" opacity="1.0" fill="#4d9900"/><g id="ProcessOnG1067" transform="matrix(1.0,0.0,0.0,1.0,10.0,12.375)"><text id="ProcessOnText1068" fill="#000000" font-size="13" x="25.0" y="13.325" font-family="微软雅黑" font-weight="normal" font-style="normal" text-decoration="none" family="微软雅黑" text-anchor="middle" size="13">结束</text></g></g><g id="ProcessOnG1069" transform="matrix(1.0,0.0,0.0,1.0,314.0,642.5659722222222)" opacity="1.0"><path id="ProcessOnPath1070" d="M0.0 0.0L82.0 0.0L82.0 45.11805555555554L0.0 45.11805555555554Z" stroke="#99ccff" stroke-width="2.0" stroke-dasharray="none" opacity="1.0" fill="#99ccff"/><g id="ProcessOnG1071" transform="matrix(1.0,0.0,0.0,1.0,10.0,6.3090277777777715)"><text id="ProcessOnText1072" fill="#000000" font-size="13" x="30.0" y="13.325" font-family="微软雅黑" font-weight="normal" font-style="normal" text-decoration="none" family="微软雅黑" text-anchor="middle" size="13">@审查者</text><text id="ProcessOnText1073" fill="#000000" font-size="13" x="30.0" y="29.575" font-family="微软雅黑" font-weight="normal" font-style="normal" text-decoration="none" family="微软雅黑" text-anchor="middle" size="13">进行审查</text></g></g><g id="ProcessOnG1074" transform="matrix(1.0,0.0,0.0,1.0,483.75,360.0)" opacity="1.0"><path id="ProcessOnPath1075" d="M0.0 0.0L82.0 0.0L82.0 48.0L0.0 48.0Z" stroke="#99ccff" stroke-width="2.0" stroke-dasharray="none" opacity="1.0" fill="#99ccff"/><g id="ProcessOnG1076" transform="matrix(1.0,0.0,0.0,1.0,10.0,-0.375)"><text id="ProcessOnText1077" fill="#000000" font-size="13" x="30.0" y="13.325" font-family="微软雅黑" font-weight="normal" font-style="normal" text-decoration="none" family="微软雅黑" text-anchor="middle" size="13">提醒提交</text><text id="ProcessOnText1078" fill="#000000" font-size="13" x="30.0" y="29.575" font-family="微软雅黑" font-weight="normal" font-style="normal" text-decoration="none" family="微软雅黑" text-anchor="middle" size="13">者完善pr</text><text id="ProcessOnText1079" fill="#000000" font-size="13" x="30.0" y="45.825" font-family="微软雅黑" font-weight="normal" font-style="normal" text-decoration="none" family="微软雅黑" text-anchor="middle" size="13">描述</text></g></g><g id="ProcessOnG1080" transform="matrix(1.0,0.0,0.0,1.0,747.25,311.0)" opacity="1.0"><path id="ProcessOnPath1081" d="M0.0 0.0L129.0 0.0L129.0 74.0L0.0 74.0Z" stroke="#99ccff" stroke-width="2.0" stroke-dasharray="none" opacity="1.0" fill="#99ccff"/><g id="ProcessOnG1082" transform="matrix(1.0,0.0,0.0,1.0,10.0,12.625)"><text id="ProcessOnText1083" fill="#000000" font-size="13" x="53.5" y="13.325" font-family="微软雅黑" font-weight="normal" font-style="normal" text-decoration="none" family="微软雅黑" text-anchor="middle" size="13">把‘完成代码审查</text><text id="ProcessOnText1084" fill="#000000" font-size="13" x="53.5" y="29.575" font-family="微软雅黑" font-weight="normal" font-style="normal" text-decoration="none" family="微软雅黑" text-anchor="middle" size="13">’这个checkbox</text><text id="ProcessOnText1085" fill="#000000" font-size="13" x="53.5" y="45.825" font-family="微软雅黑" font-weight="normal" font-style="normal" text-decoration="none" family="微软雅黑" text-anchor="middle" size="13">标记为完成</text></g></g><g id="ProcessOnG1086" transform="matrix(1.0,0.0,0.0,1.0,747.25,413.0)" opacity="1.0"><path id="ProcessOnPath1087" d="M0.0 0.0L129.0 0.0L129.0 74.0L0.0 74.0Z" stroke="#99ccff" stroke-width="2.0" stroke-dasharray="none" opacity="1.0" fill="#99ccff"/><g id="ProcessOnG1088" transform="matrix(1.0,0.0,0.0,1.0,10.0,28.875)"><text id="ProcessOnText1089" fill="#000000" font-size="13" x="53.5" y="13.325" font-family="微软雅黑" font-weight="normal" font-style="normal" text-decoration="none" family="微软雅黑" text-anchor="middle" size="13">@代码合并者</text></g></g><g id="ProcessOnG1090" transform="matrix(1.0,0.0,0.0,1.0,945.5,628.125)" opacity="1.0"><path id="ProcessOnPath1091" d="M0.0 0.0L129.0 0.0L129.0 74.0L0.0 74.0Z" stroke="#99ccff" stroke-width="2.0" stroke-dasharray="none" opacity="1.0" fill="#99ccff"/><g id="ProcessOnG1092" transform="matrix(1.0,0.0,0.0,1.0,10.0,20.75)"><text id="ProcessOnText1093" fill="#000000" font-size="13" x="53.5" y="13.325" font-family="微软雅黑" font-weight="normal" font-style="normal" text-decoration="none" family="微软雅黑" text-anchor="middle" size="13">整理所有review-it</text><text id="ProcessOnText1094" fill="#000000" font-size="13" x="53.5" y="29.575" font-family="微软雅黑" font-weight="normal" font-style="normal" text-decoration="none" family="微软雅黑" text-anchor="middle" size="13">em--开头的评论</text></g></g><g id="ProcessOnG1095" transform="matrix(1.0,0.0,0.0,1.0,757.125,649.25)" opacity="1.0"><path id="ProcessOnPath1096" d="M0.0 0.0L109.25 0.0L109.25 31.75L0.0 31.75Z" stroke="#99ccff" stroke-width="2.0" stroke-dasharray="none" opacity="1.0" fill="#99ccff"/><g id="ProcessOnG1097" transform="matrix(1.0,0.0,0.0,1.0,10.0,7.75)"><text id="ProcessOnText1098" fill="#000000" font-size="13" x="43.625" y="13.325" font-family="微软雅黑" font-weight="normal" font-style="normal" text-decoration="none" family="微软雅黑" text-anchor="middle" size="13">合并代码</text></g></g><g id="ProcessOnG1099" transform="matrix(1.0,0.0,0.0,1.0,945.5,413.0)" opacity="1.0"><path id="ProcessOnPath1100" d="M0.0 0.0L129.0 0.0L129.0 74.0L0.0 74.0Z" stroke="#99ccff" stroke-width="2.0" stroke-dasharray="none" opacity="1.0" fill="#99ccff"/><g id="ProcessOnG1101" transform="matrix(1.0,0.0,0.0,1.0,10.0,12.625)"><text id="ProcessOnText1102" fill="#000000" font-size="13" x="53.5" y="13.325" font-family="微软雅黑" font-weight="normal" font-style="normal" text-decoration="none" family="微软雅黑" text-anchor="middle" size="13">加入到审查清单仓</text><text id="ProcessOnText1103" fill="#000000" font-size="13" x="53.5" y="29.575" font-family="微软雅黑" font-weight="normal" font-style="normal" text-decoration="none" family="微软雅黑" text-anchor="middle" size="13">库里对应的位置，</text><text id="ProcessOnText1104" fill="#000000" font-size="13" x="53.5" y="45.825" font-family="微软雅黑" font-weight="normal" font-style="normal" text-decoration="none" family="微软雅黑" text-anchor="middle" size="13">并@相关成员知晓</text></g></g><g id="ProcessOnG1105"><path id="ProcessOnPath1106" d="M355.0 239.85763888888886L355.0 300.64930555555554L355.0 300.64930555555554L355.0 346.20490424472246" stroke="#323232" stroke-width="2.0" stroke-dasharray="none" fill="none" marker-end="url(#ProcessOnMarker1107)"/></g><g id="ProcessOnG1109"><path id="ProcessOnPath1110" d="M355.0 406.55902777777777L355.0 524.5625L355.0 524.5625L355.0 627.3299042447223" stroke="#323232" stroke-width="2.0" stroke-dasharray="none" fill="none" marker-end="url(#ProcessOnMarker1111)"/></g><g id="ProcessOnG1113"><path id="ProcessOnPath1114" d="M396.0 665.125L484.625 665.125L484.625 665.125L558.0139320225002 665.125" stroke="#323232" stroke-width="2.0" stroke-dasharray="none" fill="none" marker-end="url(#ProcessOnMarker1115)"/></g><g id="ProcessOnG1117"><path id="ProcessOnPath1118" d="M614.25 641.125L614.25 567.0625L614.25 567.0625L614.25 508.2360679774998" stroke="#323232" stroke-width="2.0" stroke-dasharray="none" fill="none" marker-end="url(#ProcessOnMarker1119)"/></g><g id="ProcessOnG1121"><path id="ProcessOnPath1122" d="M559.625 446.75L524.75 446.75L524.75 423.2360679774998" stroke="#323232" stroke-width="2.0" stroke-dasharray="none" fill="none" marker-end="url(#ProcessOnMarker1123)"/><g id="ProcessOnG1125" transform="matrix(1.0,0.0,0.0,1.0,530.4305339887499,438.625)"><path id="ProcessOnPath1126" d="M0 0H11.0V16.25H0Z" fill="#fff" transform="matrix(1.0,0.0,0.0,1.0,-5.5,0.0)"/><text id="ProcessOnText1127" fill="#000000" font-size="13" x="0.0" y="13.325" font-family="微软雅黑" font-weight="normal" font-style="normal" text-decoration="none" family="微软雅黑" text-anchor="middle" size="13">N</text></g></g><g id="ProcessOnG1128"><path id="ProcessOnPath1129" d="M483.75 384.0L439.875 384.0L439.875 384.0L411.2360679774998 384.0" stroke="#323232" stroke-width="2.0" stroke-dasharray="none" fill="none" marker-end="url(#ProcessOnMarker1130)"/></g><g id="ProcessOnG1132"><path id="ProcessOnPath1133" d="M614.25 400.5L614.25 330.25L614.25 330.25L614.25 275.2360679774998" stroke="#323232" stroke-width="2.0" stroke-dasharray="none" fill="none" marker-end="url(#ProcessOnMarker1134)"/><g id="ProcessOnG1136" transform="matrix(1.0,0.0,0.0,1.0,614.25,329.74303398874986)"><path id="ProcessOnPath1137" d="M0 0H8.0V16.25H0Z" fill="#fff" transform="matrix(1.0,0.0,0.0,1.0,-4.0,0.0)"/><text id="ProcessOnText1138" fill="#000000" font-size="13" x="0.0" y="13.325" font-family="微软雅黑" font-weight="normal" font-style="normal" text-decoration="none" family="微软雅黑" text-anchor="middle" size="13">Y</text></g></g><g id="ProcessOnG1139"><path id="ProcessOnPath1140" d="M677.9375 220.49999999999997L712.59375 220.49999999999997L712.59375 220.5L732.0139320225002 220.5" stroke="#323232" stroke-width="2.0" stroke-dasharray="none" fill="none" marker-end="url(#ProcessOnMarker1141)"/></g><g id="ProcessOnG1143"><path id="ProcessOnPath1144" d="M811.75 257.5L811.75 284.25L811.75 284.25L811.75 295.7639320225002" stroke="#323232" stroke-width="2.0" stroke-dasharray="none" fill="none" marker-end="url(#ProcessOnMarker1145)"/></g><g id="ProcessOnG1147"><path id="ProcessOnPath1148" d="M811.75 385.0L811.75 399.0L811.75 399.0L811.75 400.0" stroke="#323232" stroke-width="2.0" stroke-dasharray="none" fill="none" marker-end="url(#ProcessOnMarker1149)"/></g><g id="ProcessOnG1151"><path id="ProcessOnPath1152" d="M1010.0 628.125L1010.0 557.5625L1010.0 557.5625L1010.0 502.2360679774998" stroke="#323232" stroke-width="2.0" stroke-dasharray="none" fill="none" marker-end="url(#ProcessOnMarker1153)"/></g><g id="ProcessOnG1155"><path id="ProcessOnPath1156" d="M1010.0 413.0L1010.0 327.0L1010.0 327.0L1010.0 256.2360679774998" stroke="#323232" stroke-width="2.0" stroke-dasharray="none" fill="none" marker-end="url(#ProcessOnMarker1157)"/></g><g id="ProcessOnG1159" transform="matrix(1.0,0.0,0.0,1.0,757.125,524.5)" opacity="1.0"><path id="ProcessOnPath1160" d="M0.0 46.25L54.625 0.0L109.25 46.25L54.625 92.5L0.0 46.25Z" stroke="#ff8000" stroke-width="2.0" stroke-dasharray="none" opacity="1.0" fill="#ff8000"/><g id="ProcessOnG1161" transform="matrix(1.0,0.0,0.0,1.0,10.0,30.0)"><text id="ProcessOnText1162" fill="#000000" font-size="13" x="43.625" y="13.325" font-family="微软雅黑" font-weight="normal" font-style="normal" text-decoration="none" family="微软雅黑" text-anchor="middle" size="13">检查是否可以</text><text id="ProcessOnText1163" fill="#000000" font-size="13" x="43.625" y="29.575" font-family="微软雅黑" font-weight="normal" font-style="normal" text-decoration="none" family="微软雅黑" text-anchor="middle" size="13">合并</text></g></g><g id="ProcessOnG1164"><path id="ProcessOnPath1165" d="M757.125 570.75L713.0 570.75L713.0 446.75L684.1110679774998 446.75" stroke="#323232" stroke-width="2.0" stroke-dasharray="none" fill="none" marker-end="url(#ProcessOnMarker1166)"/><g id="ProcessOnG1168" transform="matrix(1.0,0.0,0.0,1.0,713.0,508.24303398874986)"><path id="ProcessOnPath1169" d="M0 0H11.0V16.25H0Z" fill="#fff" transform="matrix(1.0,0.0,0.0,1.0,-5.5,0.0)"/><text id="ProcessOnText1170" fill="#000000" font-size="13" x="0.0" y="13.325" font-family="微软雅黑" font-weight="normal" font-style="normal" text-decoration="none" family="微软雅黑" text-anchor="middle" size="13">N</text></g></g><g id="ProcessOnG1171"><path id="ProcessOnPath1172" d="M811.75 487.0L811.75 505.75L811.75 505.75L811.75 509.2639320225002" stroke="#323232" stroke-width="2.0" stroke-dasharray="none" fill="none" marker-end="url(#ProcessOnMarker1173)"/></g><g id="ProcessOnG1175"><path id="ProcessOnPath1176" d="M811.75 617.0L811.75 633.125L811.75 633.125L811.75 634.0139320225002" stroke="#323232" stroke-width="2.0" stroke-dasharray="none" fill="none" marker-end="url(#ProcessOnMarker1177)"/><g id="ProcessOnG1179" transform="matrix(1.0,0.0,0.0,1.0,811.75,617.3819660112501)"><path id="ProcessOnPath1180" d="M0 0H8.0V16.25H0Z" fill="#fff" transform="matrix(1.0,0.0,0.0,1.0,-4.0,0.0)"/><text id="ProcessOnText1181" fill="#000000" font-size="13" x="0.0" y="13.325" font-family="微软雅黑" font-weight="normal" font-style="normal" text-decoration="none" family="微软雅黑" text-anchor="middle" size="13">Y</text></g></g><g id="ProcessOnG1182"><path id="ProcessOnPath1183" d="M866.375 665.125L905.9375 665.125L905.9375 665.125L930.2639320225002 665.125" stroke="#323232" stroke-width="2.0" stroke-dasharray="none" fill="none" marker-end="url(#ProcessOnMarker1184)"/></g></g></g></svg>